<?xml version="1.0" standalone="no"?>
<!DOCTYPE svg PUBLIC "-//W3C//DTD SVG 20010904//EN"
 "http://www.w3.org/TR/2001/REC-SVG-20010904/DTD/svg10.dtd">
<svg version="1.0" xmlns="http://www.w3.org/2000/svg"
 width="392.000000pt" height="128.000000pt" viewBox="0 0 392.000000 128.000000"
 preserveAspectRatio="xMidYMid meet">

<g transform="translate(0.000000,128.000000) scale(0.100000,-0.100000)"
fill="#000000" stroke="none">
<path d="M0 640 l0 -640 1960 0 1960 0 0 640 0 640 -1960 0 -1960 0 0 -640z
m3890 0 l0 -610 -962 2 -963 3 -3 595 c-1 327 0 601 3 608 3 9 206 12 965 12
l960 0 0 -610z m-3320 -16 l0 -275 -47 3 -48 3 -3 273 -2 272 50 0 50 0 0
-276z m934 246 c24 -25 43 -94 29 -103 -5 -3 -25 -8 -46 -12 l-37 -7 0 36 0
36 -200 0 -200 0 0 -69 0 -69 208 -4 c221 -4 251 -10 271 -55 6 -13 11 -62 11
-109 0 -90 -14 -135 -47 -149 -24 -11 -370 -19 -439 -10 -73 9 -104 36 -111
97 l-5 46 38 11 c55 15 54 16 54 -34 l0 -45 210 0 210 0 0 80 0 80 -187 0
c-205 0 -255 8 -279 45 -21 33 -29 139 -15 193 19 68 36 72 293 69 218 -2 218
-2 242 -27z"/>
<path d="M2250 631 l0 -271 243 0 c210 0 247 2 277 18 44 22 60 53 60 122 0
68 -16 100 -58 122 -33 16 -33 16 -10 23 50 16 58 33 58 120 0 75 -2 84 -26
106 -26 24 -26 24 -285 27 l-259 3 0 -270z m461 189 c15 -9 19 -21 19 -63 0
-84 6 -82 -205 -85 l-185 -3 0 80 0 81 176 0 c102 0 183 -4 195 -10z m5 -224
c15 -11 19 -27 19 -74 0 -93 3 -92 -211 -92 l-184 0 0 90 0 90 178 0 c138 0
183 -3 198 -14z"/>
<path d="M3175 688 c-66 -116 -135 -238 -153 -270 l-33 -58 45 0 45 0 33 63
33 62 197 3 197 2 33 -62 33 -63 52 -3 52 -3 -157 270 -157 270 -50 0 -50 0
-120 -211z m248 7 l75 -135 -154 0 -155 0 51 93 c28 50 61 111 73 135 11 23
24 42 28 42 4 0 41 -61 82 -135z"/>
</g>
</svg>
