<?xml version="1.0" standalone="no"?>
<!DOCTYPE svg PUBLIC "-//W3C//DTD SVG 20010904//EN"
 "http://www.w3.org/TR/2001/REC-SVG-20010904/DTD/svg10.dtd">
<svg version="1.0" xmlns="http://www.w3.org/2000/svg"
 width="900.000000pt" height="388.000000pt" viewBox="0 0 900.000000 388.000000"
 preserveAspectRatio="xMidYMid meet">

<g transform="translate(0.000000,388.000000) scale(0.100000,-0.100000)"
fill="#000000" stroke="none">
<path d="M890 3010 c0 -229 0 -230 22 -230 12 0 19 -3 15 -6 -3 -3 -196 -5
-429 -5 l-423 1 0 -885 c0 -487 2 -885 5 -885 3 0 4 -17 2 -38 -6 -63 8 -67
135 -38 203 46 439 76 601 76 l72 0 0 -210 0 -210 4045 0 4045 0 0 1330 0
1330 -4045 0 -4045 0 0 -230z m8030 -1100 l0 -1260 -1985 0 -1985 0 0 1260 0
1260 1985 0 1985 0 0 -1260z m-7637 863 c-278 -3 -323 -5 -323 -18 0 -17 -16
-20 -25 -5 -3 6 -1 10 5 10 6 0 8 5 5 10 -4 7 107 9 327 8 l333 -3 -322 -2z
m-1178 -175 c3 -90 5 -485 3 -878 l-3 -715 -3 798 c-1 523 -5 797 -12 797 -6
0 -10 33 -10 80 0 144 18 84 25 -82z m68 155 c-20 -7 -15 -31 7 -38 25 -8 26
-25 2 -25 -20 0 -25 -39 -7 -52 6 -5 5 -12 -3 -20 -18 -18 -18 -1134 1 -1141
10 -3 9 -9 0 -26 -15 -25 -17 -131 -3 -131 6 0 10 -9 10 -21 0 -11 -4 -17 -10
-14 -5 3 -10 -3 -10 -15 0 -12 4 -18 10 -15 5 3 10 -1 10 -9 0 -8 -5 -18 -10
-21 -6 -3 -10 -28 -10 -56 0 -37 4 -49 15 -49 18 0 20 30 3 31 -10 0 -10 2 -1
6 10 4 13 162 13 741 1 796 -1 772 54 772 14 0 26 4 26 9 0 5 84 8 188 8 l187
-1 -165 -6 c-212 -8 -282 -28 -102 -29 75 -1 122 3 122 9 0 6 8 10 18 10 13 0
14 -2 3 -9 -8 -5 67 -8 180 -8 107 1 197 5 200 10 3 5 9 2 12 -7 6 -14 -29
-16 -348 -16 l-355 0 0 -45 c0 -41 2 -45 18 -36 53 28 381 71 544 71 l118 0 0
-740 0 -739 -82 -4 c-46 -1 82 -4 285 -5 l367 -2 0 750 0 750 -267 1 c-148 0
-262 3 -255 6 6 2 12 9 12 15 0 6 -7 7 -16 4 -8 -3 -12 -2 -9 4 6 10 -24 14
-77 10 -14 -1 -29 3 -32 9 -4 6 20 9 69 8 43 -1 74 -6 74 -12 -4 -35 -4 -35
256 -33 233 3 255 2 255 -14 0 -9 7 -23 15 -32 13 -13 15 -108 15 -739 0 -675
-1 -725 -17 -744 -19 -21 -58 -40 -48 -23 3 6 -3 10 -15 10 -12 0 -18 -4 -15
-10 9 -15 -4 -12 -21 4 -12 13 -9 15 23 19 21 2 -242 4 -584 4 -569 1 -685 -3
-595 -23 50 -11 59 -18 28 -22 -16 -2 -32 1 -35 6 -3 5 -18 11 -33 14 -21 4
-26 1 -25 -12 1 -10 6 -16 13 -13 7 2 15 0 19 -6 3 -7 -2 -11 -14 -11 -16 0
-21 -6 -21 -25 0 -29 8 -32 26 -8 7 10 16 15 20 11 10 -11 -16 -38 -37 -38
-18 0 -19 26 -19 880 0 832 1 880 18 879 10 0 12 -3 5 -6z m1357 -8 c0 -8 -7
-15 -15 -15 -8 0 -15 7 -15 15 0 8 7 15 15 15 8 0 15 -7 15 -15z m17 -7 c-3
-8 -6 -5 -6 6 -1 11 2 17 5 13 3 -3 4 -12 1 -19z m33 -5 c0 -19 -3 -24 -10
-17 -6 6 -8 18 -4 27 9 24 14 21 14 -10z m-1316 2 c3 -8 1 -15 -4 -15 -6 0
-10 -8 -10 -17 0 -16 -1 -16 -16 -1 -14 14 -14 18 -3 32 18 19 25 20 33 1z
m56 -10 c0 -14 -4 -25 -10 -25 -5 0 -10 11 -10 25 0 14 5 25 10 25 6 0 10 -11
10 -25z m1125 15 c3 -5 12 -7 20 -3 11 4 15 -2 15 -22 0 -22 -3 -25 -13 -16
-8 6 -17 8 -20 4 -4 -3 -7 3 -7 15 0 21 -5 22 -80 22 -44 0 -80 -4 -80 -9 0
-5 -29 -9 -66 -9 -36 0 -63 2 -61 5 17 17 282 29 292 13z m-585 -10 c0 -5 -9
-10 -21 -10 -11 0 -17 5 -14 10 3 6 13 10 21 10 8 0 14 -4 14 -10z m-60 -20
c0 -6 -33 -10 -80 -10 -47 0 -80 4 -80 10 0 6 33 10 80 10 47 0 80 -4 80 -10z
m320 0 c0 -12 -117 -12 -145 0 -13 6 7 9 63 9 48 1 82 -3 82 -9z m113 -7 c-7
-2 -19 -2 -25 0 -7 3 -2 5 12 5 14 0 19 -2 13 -5z m282 -3 c3 -5 1 -10 -4 -10
-6 0 -11 5 -11 10 0 6 2 10 4 10 3 0 8 -4 11 -10z m-112 -17 c-24 -2 -62 -2
-85 0 -24 2 -5 4 42 4 47 0 66 -2 43 -4z m-1203 -13 c0 -5 -2 -10 -4 -10 -3 0
-8 5 -11 10 -3 6 -1 10 4 10 6 0 11 -4 11 -10z m920 0 c0 -5 -4 -10 -10 -10
-5 0 -10 5 -10 10 0 6 5 10 10 10 6 0 10 -4 10 -10z m397 -29 c1 -30 -2 -38
-12 -35 -7 3 -12 16 -10 30 1 13 -3 24 -9 24 -10 0 13 20 24 20 3 0 6 -18 7
-39z m-474 22 c-7 -2 -21 -2 -30 0 -10 3 -4 5 12 5 17 0 24 -2 18 -5z m537
-53 c0 -5 -4 -10 -10 -10 -5 0 -10 5 -10 10 0 6 5 10 10 10 6 0 10 -4 10 -10z
m0 -77 c-1 -16 -7 -41 -16 -58 l-14 -30 5 34 c3 18 5 44 5 57 0 13 5 24 10 24
6 0 10 -12 10 -27z m-43 -5 c-3 -8 -6 -5 -6 6 -1 11 2 17 5 13 3 -3 4 -12 1
-19z m533 -643 l0 -565 -100 0 -100 0 0 565 0 565 100 0 100 0 0 -565z m1822
554 c109 -23 158 -83 161 -200 l2 -62 -56 -17 c-31 -10 -68 -20 -83 -24 l-26
-6 0 80 0 80 -415 0 -415 0 0 -155 0 -155 405 0 c459 0 491 -3 546 -59 47 -47
59 -102 59 -271 0 -71 -5 -153 -11 -182 -16 -73 -64 -121 -137 -137 -73 -15
-861 -15 -934 0 -99 22 -148 96 -148 226 0 50 3 63 18 67 20 6 151 36 158 36
2 0 4 -40 4 -90 l0 -90 435 0 435 0 0 164 0 164 -417 5 c-450 4 -469 6 -528
58 -52 46 -60 82 -60 264 0 151 1 163 25 210 28 55 64 81 132 94 66 13 787 13
850 0z m-2317 -639 c0 -352 -3 -640 -7 -640 -5 0 -8 -7 -8 -15 0 -8 5 -15 10
-15 22 0 8 -40 -26 -74 -34 -34 -74 -48 -74 -26 0 6 -7 10 -15 10 -8 0 -15 5
-15 10 0 6 18 10 39 10 31 0 41 4 46 20 3 11 10 20 15 20 4 0 8 12 7 28 -1 15
0 316 1 670 2 506 5 642 15 642 9 0 12 -135 12 -640z m-300 -30 l0 -65 -142
-3 -143 -3 0 64 c0 35 3 67 7 71 4 3 68 5 142 4 l136 -3 0 -65z m242 -512 c-2
-13 -4 -5 -4 17 -1 22 1 32 4 23 2 -10 2 -28 0 -40z m-1200 -144 c-3 -3 -12
-4 -19 -1 -8 3 -5 6 6 6 11 1 17 -2 13 -5z m423 2 c0 -2 -7 -7 -16 -10 -8 -3
-12 -2 -9 4 6 10 25 14 25 6z m165 -6 c-4 -6 3 -8 17 -6 13 3 23 5 23 6 0 6
251 5 289 -1 46 -7 43 -8 -19 -4 -38 3 -96 1 -129 -4 -32 -4 -76 -5 -98 -1
-28 5 -38 4 -35 -4 3 -7 -10 -11 -34 -12 -34 -1 -37 1 -28 18 5 10 12 18 15
18 3 0 2 -5 -1 -10z m418 -7 c-7 -2 -19 -2 -25 0 -7 3 -2 5 12 5 14 0 19 -2
13 -5z m-1003 -43 c0 -12 -5 -17 -13 -14 -8 3 -14 11 -14 19 0 8 6 15 14 15 7
0 13 -9 13 -20z m521 0 c21 0 7 -16 -16 -18 -17 -1 -25 3 -25 14 0 11 5 14 16
10 9 -3 20 -6 25 -6z m402 3 c-24 -2 -62 -2 -85 0 -24 2 -5 4 42 4 47 0 66 -2
43 -4z m-123 -32 c0 -6 17 -12 38 -14 20 -2 10 -3 -22 -1 -32 2 -85 4 -117 4
-33 0 -59 4 -59 10 0 6 33 10 80 10 44 0 80 -4 80 -9z m-800 -27 c0 -2 -9 -4
-20 -4 -11 0 -20 4 -20 9 0 5 9 7 20 4 11 -3 20 -7 20 -9z m620 12 c0 -11 -19
-15 -25 -6 -3 5 1 10 9 10 9 0 16 -2 16 -4z"/>
<path d="M5558 2442 l-28 -3 0 -560 0 -560 498 3 c451 4 502 6 549 22 125 44
159 112 151 300 -7 161 -41 216 -158 252 l-35 10 55 17 c63 19 106 57 120 108
6 18 10 83 10 144 -1 150 -22 203 -95 244 -26 14 -91 17 -535 21 -278 3 -517
4 -532 2z m911 -153 c17 -6 36 -19 41 -29 6 -10 10 -64 10 -119 0 -91 -2 -102
-24 -128 l-24 -28 -376 -3 -376 -3 0 161 0 160 359 0 c235 0 369 -4 390 -11z
m0 -460 c49 -17 61 -52 61 -173 0 -58 -5 -116 -11 -130 -22 -48 -46 -51 -434
-51 l-360 0 -3 183 -2 182 358 0 c237 0 370 -4 391 -11z"/>
<path d="M7690 2440 c-4 -3 -148 -252 -320 -555 -172 -302 -314 -553 -317
-557 -2 -5 38 -8 90 -8 l95 0 74 138 74 137 400 3 399 2 75 -137 75 -138 104
-3 c89 -2 103 -1 98 12 -8 20 -626 1089 -635 1098 -8 8 -200 15 -212 8z m260
-413 c84 -153 150 -280 148 -283 -3 -2 -145 -3 -316 -2 l-310 3 156 287 c86
157 160 283 163 280 4 -4 75 -132 159 -285z"/>
<path d="M1470 1871 c0 -467 3 -711 10 -711 7 0 10 241 10 704 0 459 -3 707
-10 711 -7 4 -10 -233 -10 -704z"/>
<path d="M619 2158 c-1 -24 -1 -53 -2 -65 0 -22 -3 -23 -93 -23 -52 0 -94 -4
-94 -9 0 -15 17 -16 110 -7 l90 10 0 68 c0 74 -9 95 -11 26z"/>
<path d="M463 2183 c-18 -7 -16 -23 2 -23 8 0 15 -7 15 -15 0 -8 9 -15 21 -15
11 0 17 5 14 10 -3 6 0 10 7 10 8 0 14 -8 15 -18 1 -15 -6 -18 -32 -18 -18 1
-31 4 -28 9 2 4 -1 7 -6 7 -19 0 -25 -5 -27 -18 -3 -16 44 -28 58 -14 7 7 16
7 28 0 19 -12 55 -3 45 11 -3 5 -1 12 4 16 6 3 8 -5 5 -20 -3 -18 -1 -23 9
-19 8 3 14 21 15 40 1 28 -2 35 -13 30 -10 -4 -15 1 -15 14 0 17 -7 20 -52 19
-29 0 -59 -3 -65 -6z m104 -45 c-3 -8 -6 -5 -6 6 -1 11 2 17 5 13 3 -3 4 -12
1 -19z"/>
<path d="M620 1992 c0 -4 -35 -6 -77 -5 -43 1 -82 -2 -88 -7 -7 -5 -8 -93 -5
-258 3 -160 1 -250 -5 -249 -5 1 -11 -9 -13 -22 -2 -14 0 -21 6 -17 6 4 13 2
17 -3 3 -6 -10 -9 -32 -8 -34 2 -38 -1 -42 -23 -3 -23 -4 -24 -12 -5 -6 16 -8
13 -8 -14 -1 -19 -4 -32 -7 -28 -4 3 -13 -1 -21 -9 -19 -19 -9 -31 12 -14 8 7
15 9 15 4 0 -4 5 -3 12 4 17 17 33 15 18 -3 -14 -17 -14 -17 15 -34 17 -10 13
-11 -28 -9 -43 3 -47 1 -45 -17 3 -18 10 -20 68 -19 36 0 82 6 103 13 41 14
107 66 107 84 0 6 -6 3 -13 -8 -8 -10 -19 -15 -24 -12 -6 4 -10 -1 -9 -10 2
-22 -49 -39 -77 -25 -12 6 -30 13 -39 16 -11 3 -18 15 -18 31 0 22 -4 25 -20
20 -16 -5 -20 -2 -20 18 0 26 25 44 35 26 4 -5 1 -8 -6 -7 -6 2 -13 -2 -16 -8
-5 -14 35 -26 43 -13 3 5 9 9 15 9 12 0 12 -37 -1 -45 -19 -11 -10 -25 16 -25
15 0 23 -4 19 -10 -4 -7 3 -8 22 -4 36 9 44 14 39 23 -7 11 43 53 54 46 6 -4
10 -1 10 4 0 6 -4 11 -8 11 -5 0 -7 12 -5 28 3 15 -3 36 -12 47 -16 20 -16 19
-5 -3 14 -29 4 -63 -16 -55 -8 3 -13 8 -10 11 3 2 1 13 -5 23 -12 24 -1 25 17
2 13 -16 13 -15 5 8 -5 15 -7 30 -3 33 3 4 9 114 12 244 l6 237 2 -241 c1
-132 6 -244 11 -250 5 -5 11 -20 14 -34 2 -14 5 107 6 268 0 160 -1 292 -4
292 -3 0 -5 -3 -5 -8z m-85 -270 c0 -245 -5 -302 -26 -302 -5 0 -9 -9 -9 -20
0 -23 -15 -27 -23 -6 -3 8 0 20 8 26 18 15 26 50 12 50 -8 0 -8 3 1 8 10 7 12
63 10 255 -3 214 -1 247 12 247 13 0 15 -35 15 -258z m82 -125 c-1 -67 -3 -9
-3 128 0 138 2 192 3 122 2 -71 2 -183 0 -250z m-140 301 c-3 -8 -6 -5 -6 6
-1 11 2 17 5 13 3 -3 4 -12 1 -19z m0 -355 c-2 -16 -4 -3 -4 27 0 30 2 43 4
28 2 -16 2 -40 0 -55z m0 -88 c0 -8 -4 -15 -9 -15 -10 0 -11 14 -1 23 9 10 10
9 10 -8z m103 -69 c0 -2 -8 -10 -17 -17 -16 -13 -17 -12 -4 4 13 16 21 21 21
13z m-52 -46 c10 -17 10 -20 -2 -20 -8 0 -18 5 -21 10 -4 6 -12 7 -18 3 -7 -4
-6 0 2 10 17 22 23 21 39 -3z m-65 -57 c-7 -2 -19 -2 -25 0 -7 3 -2 5 12 5 14
0 19 -2 13 -5z"/>
</g>
</svg>
