<?xml version="1.0" encoding="UTF-8"?>
<svg version="1.1" xmlns="http://www.w3.org/2000/svg" width="1200" height="1200">
<path d="M0 0 C148.5 0 297 0 450 0 C450 49.5 450 99 450 150 C301.5 150 153 150 0 150 C0 100.5 0 51 0 0 Z M5 5 C5 51.2 5 97.4 5 145 C150.2 145 295.4 145 445 145 C445 98.8 445 52.6 445 5 C299.8 5 154.6 5 5 5 Z " fill="#5A4AE2" transform="translate(375,477)"/>
<path d="M0 0 C6.50025819 0.1325231 6.50025819 0.1325231 9.51171875 2.421875 C11.43793287 5.09792072 12.87300248 7.78148398 14.3125 10.75 C14.95859795 12.00771502 15.60716327 13.26416469 16.2578125 14.51953125 C17.64202928 17.22327562 18.98898057 19.94184793 20.3125 22.67578125 C23.12721031 28.46663378 26.21898724 34.10433921 29.3125 39.75 C32.33124515 36.08370068 34.34357984 32.01346378 36.5 27.8125 C40.44863507 20.22786406 44.7483809 12.97824292 49.3125 5.75 C49.93318359 4.34814453 49.93318359 4.34814453 50.56640625 2.91796875 C52.3125 0.75 52.3125 0.75 55.81640625 0.19140625 C57.16979432 0.20598732 58.5231061 0.24727144 59.875 0.3125 C60.56013672 0.31830078 61.24527344 0.32410156 61.95117188 0.33007812 C67.01685897 0.45435897 67.01685897 0.45435897 69.3125 2.75 C69.50063821 5.55149514 69.5642501 8.25336003 69.53955078 11.05517578 C69.53984283 11.91378204 69.54013489 12.77238831 69.54043579 13.65701294 C69.53903922 16.50321457 69.52346273 19.34915644 69.5078125 22.1953125 C69.50408353 24.16543434 69.50123601 26.13555802 69.49923706 28.10568237 C69.49159146 33.29743548 69.47193504 38.48907714 69.4498291 43.68078613 C69.4293906 48.9759775 69.42023962 54.27118683 69.41015625 59.56640625 C69.38869001 69.96098654 69.35454292 80.35548401 69.3125 90.75 C66.26267742 92.27491129 63.09127461 91.89361434 59.75 91.875 C59.05197266 91.87886719 58.35394531 91.88273438 57.63476562 91.88671875 C52.43913994 91.87663994 52.43913994 91.87663994 51.3125 90.75 C49.89218033 80.78555154 50.00136963 70.54862925 49.75 60.5 C49.70668965 58.86848134 49.66307196 57.23697081 49.61914062 55.60546875 C49.51339024 51.65373043 49.41177648 47.70190604 49.3125 43.75 C48.92795654 44.45632568 48.54341309 45.16265137 48.1472168 45.89038086 C41.73334015 57.66193004 41.73334015 57.66193004 39.125 62.3125 C38.79564453 62.91384766 38.46628906 63.51519531 38.12695312 64.13476562 C36.40008185 67.20056294 35.30052411 68.75798393 32.3125 70.75 C29.7890625 71.0859375 29.7890625 71.0859375 27.3125 70.75 C25.8984375 69.4140625 25.8984375 69.4140625 24.6875 67.375 C21.69415194 62.361142 18.64882977 57.37961404 15.6015625 52.3984375 C14.83743042 51.14873169 14.83743042 51.14873169 14.05786133 49.8737793 C12.80961538 47.83239231 11.56115612 45.79113611 10.3125 43.75 C10.30441315 44.30710159 10.29632629 44.86420319 10.28799438 45.43818665 C10.20202732 51.22945227 10.10252739 57.0203725 9.99511719 62.8112793 C9.95680196 64.97332973 9.9219536 67.13544447 9.890625 69.29760742 C9.84502983 72.40306604 9.78702616 75.50808099 9.7265625 78.61328125 C9.71501129 79.58211746 9.70346008 80.55095367 9.69155884 81.54914856 C9.67168915 82.4498558 9.65181946 83.35056305 9.63134766 84.27856445 C9.61802399 85.07132278 9.60470032 85.86408112 9.5909729 86.68086243 C9.3125 88.75 9.3125 88.75 7.3125 91.75 C4.71823202 92.02668225 2.39986354 92.12295242 -0.1875 92.0625 C-0.87714844 92.06572266 -1.56679688 92.06894531 -2.27734375 92.07226562 C-7.42037408 92.01712592 -7.42037408 92.01712592 -9.6875 89.75 C-9.87740571 86.69585816 -9.94243282 83.73420868 -9.91796875 80.6796875 C-9.91796371 79.74663284 -9.91795868 78.81357819 -9.91795349 77.85224915 C-9.91442329 74.77636514 -9.89545504 71.70081487 -9.875 68.625 C-9.8667865 66.50691823 -9.85881325 64.38883551 -9.85107422 62.27075195 C-9.78869908 49.03463481 -9.64403131 35.79819366 -9.36709595 22.5647583 C-9.3307404 20.81526196 -9.29718488 19.06570516 -9.26644897 17.31610107 C-9.22177206 14.89135542 -9.16391845 12.46731591 -9.1015625 10.04296875 C-9.08999619 9.32748367 -9.07842987 8.6119986 -9.06651306 7.87483215 C-8.85495753 0.94168046 -6.59953072 0.36469245 0 0 Z " fill="#5A49E2" transform="translate(718.6875,506.25)"/>
<path d="M0 0 C4.95746767 6.44247488 6.47844427 13.02743779 6.4140625 21.04296875 C5.51665339 27.45182439 1.80669722 32.35040689 -2.875 36.625 C-3.926875 37.305625 -3.926875 37.305625 -5 38 C-4.113125 38.639375 -3.22625 39.27875 -2.3125 39.9375 C2.46487046 43.99996704 5.44284645 48.66606506 6.484375 54.8984375 C6.86291506 63.07910882 4.83923559 69.68655954 -0.64453125 75.84765625 C-9.92952794 84.37811596 -20.99576116 84.2303424 -32.90478516 84.29516602 C-34.38860561 84.30675071 -35.87238235 84.3273037 -37.35595703 84.35668945 C-39.51102709 84.39929576 -41.66487412 84.41551546 -43.8203125 84.42578125 C-45.74254639 84.44765503 -45.74254639 84.44765503 -47.70361328 84.4699707 C-51 84 -51 84 -53.17565918 82.47796631 C-55.70070114 79.0482514 -55.54590773 75.97848776 -55.48583984 71.88256836 C-55.48963654 71.0675032 -55.49343323 70.25243805 -55.49734497 69.41267395 C-55.50474823 66.72133781 -55.48337353 64.03108376 -55.4609375 61.33984375 C-55.45855304 59.46944811 -55.45764776 57.59905004 -55.4581604 55.72865295 C-55.45503289 51.81040434 -55.43847013 47.89252177 -55.41162109 43.97436523 C-55.37761787 38.94809856 -55.36999321 33.92223367 -55.37151146 28.89586544 C-55.37096806 25.03459324 -55.36000606 21.17340914 -55.34550858 17.31216621 C-55.33913804 15.45857981 -55.33520108 13.60498341 -55.33372116 11.75138664 C-55.32939219 9.16342984 -55.31190075 6.57590197 -55.29052734 3.98803711 C-55.29143372 3.21964508 -55.29234009 2.45125305 -55.29327393 1.65957642 C-55.24781401 -2.09838086 -55.13776123 -3.79335816 -53 -7 C-50.96313477 -7.46411133 -50.96313477 -7.46411133 -48.44140625 -7.58203125 C-47.5071582 -7.62835693 -46.57291016 -7.67468262 -45.61035156 -7.72241211 C-44.60456055 -7.75214111 -43.59876953 -7.78187012 -42.5625 -7.8125 C-41.0170752 -7.86386108 -41.0170752 -7.86386108 -39.44042969 -7.91625977 C-9.84659681 -8.62488943 -9.84659681 -8.62488943 0 0 Z M-35 10 C-37.52775351 13.79163027 -37.22443035 16.80874031 -37.125 21.1875 C-37.11597656 21.93708984 -37.10695313 22.68667969 -37.09765625 23.45898438 C-37.07412578 25.30612654 -37.03825561 27.15310412 -37 29 C-34.64640498 29.22415191 -32.29351589 29.42959058 -29.9375 29.625 C-28.62652344 29.74101563 -27.31554687 29.85703125 -25.96484375 29.9765625 C-21.87455925 30.00074152 -18.83129541 29.39144146 -15 28 C-12.5952296 25.39483207 -13.00559488 23.64752263 -13.0625 20.0625 C-13.57695609 16.92899472 -14.15334842 15.78159468 -16.0625 13.0625 C-19.68586047 10.51843839 -22.70364916 10.11824819 -27 10 C-27.73347656 9.94972656 -28.46695312 9.89945313 -29.22265625 9.84765625 C-31.62173728 9.6978445 -31.62173728 9.6978445 -35 10 Z M-36 47 C-37.01819948 50.39947245 -37.19779749 53.58392983 -37.25 57.125 C-37.27578125 58.17945313 -37.3015625 59.23390625 -37.328125 60.3203125 C-37.21984375 61.20460938 -37.1115625 62.08890625 -37 63 C-32.52095721 65.98602852 -28.2521421 65.47680061 -23 65 C-19.44429603 64.12386431 -16.7785787 62.68125636 -14 60.25 C-12.49750691 56.86939054 -13.10318069 54.52321871 -14 51 C-15.97284607 48.18164848 -17.69212893 47.60291246 -21 47 C-23.59373914 46.93101758 -26.15810197 46.90565248 -28.75 46.9375 C-29.44738281 46.94201172 -30.14476562 46.94652344 -30.86328125 46.95117188 C-32.57555803 46.9628998 -34.28779033 46.98083347 -36 47 Z " fill="#5A4AE3" transform="translate(467,514)"/>
<path d="M0 0 C1.21913086 -0.0309375 1.21913086 -0.0309375 2.46289062 -0.0625 C9.21690216 -0.10548496 15.40862534 0.93583392 21.08203125 4.79296875 C34.46749902 19.05950528 32.13693904 38.82128071 32.07324219 57.17822266 C32.06242291 60.90152901 32.07323835 64.62436361 32.0859375 68.34765625 C32.08461754 70.72395939 32.08205855 73.10026225 32.078125 75.4765625 C32.08217346 76.58488434 32.08622192 77.69320618 32.09039307 78.83511353 C32.08093658 80.38360489 32.08093658 80.38360489 32.07128906 81.96337891 C32.06969788 82.86633698 32.06810669 83.76929504 32.06646729 84.69961548 C31.7822847 87.55342741 31.08637289 89.6856708 29.8125 92.25 C27.11585792 93.59832104 24.94662479 93.41910682 21.9375 93.4375 C20.88820313 93.45167969 19.83890625 93.46585938 18.7578125 93.48046875 C14.00174111 93.10830932 14.00174111 93.10830932 11.8125 91.25 C10.38296823 85.55432628 10.6957466 79.65506273 10.75 73.8125 C10.770625 70.656875 10.79125 67.50125 10.8125 64.25 C2.8925 63.92 -5.0275 63.59 -13.1875 63.25 C-13.166875 65.828125 -13.14625 68.40625 -13.125 71.0625 C-13.09829808 77.84348441 -13.3723607 84.5105447 -14.1875 91.25 C-19.41149526 92.99133175 -23.66880264 93.79282269 -29.1875 93.25 C-31.81877766 91.23713807 -33.0363504 90.06940483 -33.64401245 86.775177 C-33.62339752 85.84921722 -33.60278259 84.92325745 -33.58154297 83.96923828 C-33.56767548 82.91358673 -33.55380798 81.85793518 -33.53952026 80.77029419 C-33.50327545 79.63180023 -33.46703064 78.49330627 -33.4296875 77.3203125 C-33.40657501 76.13839325 -33.38346252 74.956474 -33.35964966 73.73873901 C-33.30663835 71.23185511 -33.24378029 68.72516312 -33.171875 66.21875 C-33.06391242 62.42463637 -32.98622479 58.63088295 -32.9140625 54.8359375 C-32.06765544 15.88287918 -32.06765544 15.88287918 -21.1875 5.25 C-14.20698028 0.90285 -8.07865106 0.05006135 0 0 Z M-9.96484375 21.5859375 C-14.60542067 27.90186647 -13.1875 37.04919146 -13.1875 44.25 C-0.3175 44.745 -0.3175 44.745 12.8125 45.25 C12.6578125 41.5065625 12.6578125 41.5065625 12.5 37.6875 C12.47510498 36.91591553 12.45020996 36.14433105 12.42456055 35.34936523 C12.12850269 29.69689312 10.89152219 24.96176807 7.375 20.375 C2.06540465 16.55209135 -5.27492946 17.10863266 -9.96484375 21.5859375 Z " fill="#5949E2" transform="translate(518.1875,504.75)"/>
<path d="M0 0 C0.88558594 -0.01546875 1.77117188 -0.0309375 2.68359375 -0.046875 C10.53203986 -0.00077546 16.23989237 2.36839116 22.75 6.625 C28.19440621 12.31687922 31.0570147 19.29163961 31.875 27.0625 C31.5 30.5 31.5 30.5 29.40234375 32.234375 C25.82473175 33.79446422 23.54483743 33.61609305 19.6875 33.1875 C18.52605469 33.06761719 17.36460937 32.94773437 16.16796875 32.82421875 C15.28753906 32.71722656 14.40710938 32.61023438 13.5 32.5 C13.19707031 31.72914063 12.89414062 30.95828125 12.58203125 30.1640625 C12.16308594 29.16117188 11.74414062 28.15828125 11.3125 27.125 C10.90644531 26.12726562 10.50039063 25.12953125 10.08203125 24.1015625 C8.17821361 20.97084016 6.99909972 20.40128326 3.5 19.5 C-0.70295448 18.9677823 -5.02132746 18.82409805 -8.5 21.5 C-10.37885224 24.00513632 -10.50946039 25.30133176 -10.359375 28.453125 C-9.79177368 31.61488938 -9.79177368 31.61488938 -7.33984375 33.1875 C-6.38207031 33.620625 -5.42429687 34.05375 -4.4375 34.5 C-3.35855469 34.99628906 -2.27960937 35.49257813 -1.16796875 36.00390625 C2.08555475 37.33095577 5.34868815 38.53344207 8.66113281 39.69946289 C17.04959836 42.66326973 23.1496673 45.85276432 28.4375 53.1875 C31.53606156 59.9314281 31.51587012 67.60266649 29.6640625 74.70703125 C26.7231437 82.55277099 22.88498908 87.85507603 15.2890625 91.5859375 C5.24446659 95.22334931 -6.42013171 94.85991047 -16.19921875 90.6875 C-22.88495376 87.23679806 -26.60108987 82.39853425 -29.5 75.5 C-31.09555527 70.18411535 -31.83187418 65.94331185 -30.5 60.5 C-24.69517788 58.35473965 -19.57504913 58.12284078 -13.5 59.5 C-11.11425149 61.88574851 -11.05262522 63.18776214 -10.375 66.4375 C-9.33107678 70.12209545 -9.33107678 70.12209545 -6.84375 72.89453125 C-2.20702941 74.90929674 1.77409221 74.52202457 6.6171875 73.43359375 C9.08261071 72.21111212 9.55179175 71.04119811 10.5 68.5 C11.33349951 65.54340127 11.33349951 65.54340127 10.5 62.5 C5.31934621 58.27089486 -0.67215248 56.1900631 -6.84765625 53.79858398 C-15.00578578 50.59345884 -24.2383986 46.62643302 -28.5 38.5 C-31.52938115 29.27415742 -30.60682627 21.2212378 -26.5 12.5 C-20.33156781 2.51604274 -11.26533263 -0.19677437 0 0 Z " fill="#5949E3" transform="translate(664.5,505.5)"/>
<path d="M0 0 C3.90343282 4.03905058 5.95092866 8.82004828 8.3359375 13.86328125 C9.30851594 15.87827079 10.2824025 17.89262963 11.2578125 19.90625 C11.6815918 20.79723389 12.10537109 21.68821777 12.54199219 22.60620117 C13.41891551 24.61305072 13.41891551 24.61305072 14.5859375 25.67578125 C15.34777344 24.09990234 15.34777344 24.09990234 16.125 22.4921875 C25.90622862 2.46225384 25.90622862 2.46225384 31.5859375 -1.32421875 C34.20337408 -1.30705523 36.67816355 -1.19154125 39.2734375 -0.94921875 C40.3262793 -0.86414063 40.3262793 -0.86414063 41.40039062 -0.77734375 C43.12974035 -0.63617234 44.85797838 -0.48149916 46.5859375 -0.32421875 C47.8669558 3.24469995 47.61327284 4.61025966 46.12646484 8.17407227 C45.40579177 9.5169896 44.66989774 10.85181001 43.921875 12.1796875 C43.53278961 12.89881821 43.14370422 13.61794891 42.74282837 14.35887146 C41.49549983 16.65956016 40.22949356 18.9492391 38.9609375 21.23828125 C27.41883228 41.16254604 27.41883228 41.16254604 23.55859375 63.46484375 C23.57083984 64.73585938 23.58308594 66.006875 23.59570312 67.31640625 C23.6221612 69.31546101 23.64866586 71.31452272 23.68188477 73.31347656 C23.71212997 75.2596483 23.7292809 77.20600962 23.74609375 79.15234375 C23.76293213 80.30814941 23.77977051 81.46395508 23.79711914 82.65478516 C23.59054954 85.60980506 23.22726014 87.23985289 21.5859375 89.67578125 C18.76235148 91.08757426 16.29508287 90.95957414 13.1484375 91.05078125 C11.99472656 91.09976563 10.84101562 91.14875 9.65234375 91.19921875 C6.5859375 90.67578125 6.5859375 90.67578125 4.88842773 88.61523438 C3.27492842 84.97389759 3.39572011 81.99420277 3.6796875 78.12109375 C3.75152411 76.61549606 3.81931876 75.1097013 3.88354492 73.60375977 C3.91902435 72.819617 3.95450378 72.03547424 3.99105835 71.22756958 C4.62319496 55.05898313 2.78365488 43.37510835 -5.81347656 29.32568359 C-8.07152922 25.58729074 -10.09633793 21.73898525 -12.12182617 17.87084961 C-13.08244594 16.04010898 -14.06085348 14.21855184 -15.05981445 12.40844727 C-15.500271 11.59690186 -15.94072754 10.78535645 -16.39453125 9.94921875 C-16.78535889 9.24200684 -17.17618652 8.53479492 -17.57885742 7.80615234 C-18.55812364 5.30832217 -18.56441813 3.33565088 -18.4140625 0.67578125 C-12.40549186 -1.3696896 -5.85106896 -3.20956695 0 0 Z " fill="#5949E3" transform="translate(576.4140625,507.32421875)"/>
<path d="M0 0 C3.3 0 6.6 0 10 0 C12.31 4.29 14.62 8.58 17 13 C18.98 8.71 20.96 4.42 23 0 C26.63 0 30.26 0 34 0 C34 10.89 34 21.78 34 33 C30.7 33 27.4 33 24 33 C23.67 29.37 23.34 25.74 23 22 C22.01 23.98 21.02 25.96 20 28 C18.02 28 16.04 28 14 28 C12.68 25.36 11.36 22.72 10 20 C9.67 24.29 9.34 28.58 9 33 C6.03 33 3.06 33 0 33 C0 22.11 0 11.22 0 0 Z " fill="#5A4AE3" transform="translate(841,690)"/>
<path d="M0 0 C5.56875 -0.12375 5.56875 -0.12375 11.25 -0.25 C12.4143457 -0.28641602 13.57869141 -0.32283203 14.77832031 -0.36035156 C15.70225586 -0.3703418 16.62619141 -0.38033203 17.578125 -0.390625 C18.99206543 -0.4220459 18.99206543 -0.4220459 20.43457031 -0.45410156 C23.7721246 0.13667223 24.91449269 1.38510382 27 4 C28.19826232 7.85155747 28.08120401 9.73834263 26.875 13.625 C26.441875 15.295625 26.441875 15.295625 26 17 C27.36323743 19.0399719 27.36323743 19.0399719 29 21 C29.4375 24.5 29.4375 24.5 29 28 C27.13291495 30.36497439 25.67938569 31.66030715 23 33 C21.2595583 33.08449628 19.51590278 33.10723024 17.7734375 33.09765625 C16.3800415 33.09390991 16.3800415 33.09390991 14.95849609 33.09008789 C13.77594238 33.08098389 12.59338867 33.07187988 11.375 33.0625 C5.744375 33.0315625 5.744375 33.0315625 0 33 C0 22.11 0 11.22 0 0 Z M10 8 C10 9.65 10 11.3 10 13 C14.14093698 13.20970559 14.14093698 13.20970559 18 12 C17.67 10.68 17.34 9.36 17 8 C14.69 8 12.38 8 10 8 Z M10 20 C10 21.65 10 23.3 10 25 C12.64 25 15.28 25 18 25 C18.59070014 23.05396726 18.59070014 23.05396726 19 21 C18.01732141 19.79438816 18.01732141 19.79438816 16.15234375 19.90234375 C14.1015625 19.93489583 12.05078125 19.96744792 10 20 Z " fill="#5A4AE3" transform="translate(177,690)"/>
<path d="M0 0 C0.99 0 1.98 0 3 0 C6 0 9 0 12 0 C12.05819473 4.06243957 12.09366215 8.12477146 12.125 12.1875 C12.14175781 13.33798828 12.15851562 14.48847656 12.17578125 15.67382812 C12.18222656 16.78564453 12.18867187 17.89746094 12.1953125 19.04296875 C12.20578613 20.06414795 12.21625977 21.08532715 12.22705078 22.13745117 C11.86088169 26.75393787 10.60620358 29.33317606 7.5 32.75 C3.42983387 35.88700609 -0.97716259 36.27818792 -6 36 C-10.46178577 35.02166824 -13.3832683 33.92509755 -16 30 C-13.03 27.525 -13.03 27.525 -10 25 C-9.01 25.66 -8.02 26.32 -7 27 C-4.66800612 27.07905064 -2.33167378 27.08798769 0 27 C0 26.34 0 25.68 0 25 C-0.59167969 25.04640625 -1.18335938 25.0928125 -1.79296875 25.140625 C-5.83609841 25.32530303 -8.33236549 25.36932973 -11.9375 23.375 C-15.28240816 19.52328758 -16.25422293 16.0291762 -15.9375 11 C-15.22756214 6.48929724 -13.18849797 4.18849797 -10 1 C-6.83598119 -0.58200941 -3.46125163 -0.06168567 0 0 Z M-3 8 C-4.66621425 9.1645201 -4.66621425 9.1645201 -6 11 C-6.08024658 13.59889783 -6.08024658 13.59889783 -5 16 C-3.03241727 17.36020151 -3.03241727 17.36020151 -1 18 C-0.01 17.34 0.98 16.68 2 16 C2.2502157 12.91634129 2.2502157 12.91634129 2 10 C-0.475 9.01 -0.475 9.01 -3 8 Z " fill="#5A4AE3" transform="translate(1011,698)"/>
<path d="M0 0 C0.99 0 1.98 0 3 0 C6 0 9 0 12 0 C12.05819473 4.06243957 12.09366215 8.12477146 12.125 12.1875 C12.14175781 13.33798828 12.15851562 14.48847656 12.17578125 15.67382812 C12.18222656 16.78564453 12.18867187 17.89746094 12.1953125 19.04296875 C12.20578613 20.06414795 12.21625977 21.08532715 12.22705078 22.13745117 C11.86088169 26.75393787 10.60620358 29.33317606 7.5 32.75 C3.42983387 35.88700609 -0.97716259 36.27818792 -6 36 C-10.46178577 35.02166824 -13.3832683 33.92509755 -16 30 C-13.03 27.525 -13.03 27.525 -10 25 C-9.01 25.66 -8.02 26.32 -7 27 C-4.66800612 27.07905064 -2.33167378 27.08798769 0 27 C0 26.34 0 25.68 0 25 C-0.59167969 25.04640625 -1.18335938 25.0928125 -1.79296875 25.140625 C-5.83609841 25.32530303 -8.33236549 25.36932973 -11.9375 23.375 C-15.28240816 19.52328758 -16.25422293 16.0291762 -15.9375 11 C-15.22756214 6.48929724 -13.18849797 4.18849797 -10 1 C-6.83598119 -0.58200941 -3.46125163 -0.06168567 0 0 Z M-3 8 C-4.66621425 9.1645201 -4.66621425 9.1645201 -6 11 C-6.08024658 13.59889783 -6.08024658 13.59889783 -5 16 C-3.03241727 17.36020151 -3.03241727 17.36020151 -1 18 C-0.01 17.34 0.98 16.68 2 16 C2.2502157 12.91634129 2.2502157 12.91634129 2 10 C-0.475 9.01 -0.475 9.01 -3 8 Z " fill="#5A4AE3" transform="translate(521,698)"/>
<path d="M0 0 C1.60869594 0.69885971 3.17115538 1.5027412 4.71875 2.328125 C3.59423273 5.3000635 2.49581209 7.66253187 0.71875 10.328125 C-2.58125 9.668125 -5.88125 9.008125 -9.28125 8.328125 C-9.61125 8.988125 -9.94125 9.648125 -10.28125 10.328125 C-9.70117188 10.41449219 -9.12109375 10.50085938 -8.5234375 10.58984375 C-2.72757899 11.63233315 0.76060483 12.87521169 4.71875 17.328125 C5.96428773 21.3578059 5.95679181 23.55448912 4.71875 27.578125 C2.09442538 31.18657135 -0.03310595 32.05368178 -4.28125 33.328125 C-10.1987548 33.9980312 -15.81773764 32.60982173 -21.28125 30.328125 C-21.61125 29.668125 -21.94125 29.008125 -22.28125 28.328125 C-21.16661076 25.53872629 -19.69496466 22.98419496 -18.28125 20.328125 C-13.99125 21.648125 -9.70125 22.968125 -5.28125 24.328125 C-6.12819152 22.08182981 -6.12819152 22.08182981 -8.6796875 21.36328125 C-10.65858795 20.71663268 -12.63775348 20.07079471 -14.6171875 19.42578125 C-17.27977234 18.32873383 -18.63426698 17.66771346 -20.28125 15.328125 C-20.97080439 11.93781589 -20.87818351 8.73064599 -20.28125 5.328125 C-15.06423696 -1.39907603 -8.06877679 -2.37642056 0 0 Z " fill="#5A4AE3" transform="translate(567.28125,690.671875)"/>
<path d="M0 0 C2.97 0 5.94 0 9 0 C11.80662012 6.73588829 14.31647793 13.5598606 16.75 20.4375 C17.06783447 21.32598633 17.38566895 22.21447266 17.71313477 23.12988281 C18.00889404 23.97260742 18.30465332 24.81533203 18.609375 25.68359375 C19.0110791 26.82139282 19.0110791 26.82139282 19.42089844 27.98217773 C20 30 20 30 20 33 C16.7 33 13.4 33 10 33 C9.67 31.02 9.34 29.04 9 27 C6.03 27 3.06 27 0 27 C-0.33 28.98 -0.66 30.96 -1 33 C-4.3 33 -7.6 33 -11 33 C-8.99062683 25.26042698 -6.60197818 17.80323255 -3.8125 10.3125 C-3.44447266 9.31283203 -3.07644531 8.31316406 -2.69726562 7.28320312 C-1.80226758 4.8539227 -0.90314552 2.42626047 0 0 Z M4 12 C3.34 14.64 2.68 17.28 2 20 C3.65 20 5.3 20 7 20 C6.34 17.36 5.68 14.72 5 12 C4.67 12 4.34 12 4 12 Z " fill="#5A4AE3" transform="translate(217,690)"/>
<path d="M0 0 C3.3 0 6.6 0 10 0 C10.20496094 0.78246094 10.40992188 1.56492187 10.62109375 2.37109375 C10.89050781 3.38300781 11.15992188 4.39492188 11.4375 5.4375 C11.83775391 6.95150391 11.83775391 6.95150391 12.24609375 8.49609375 C12.75978077 10.91752001 12.75978077 10.91752001 14 12 C14.99 8.04 15.98 4.08 17 0 C19.97 0 22.94 0 26 0 C24.61957668 6.47032542 23.02972816 12.83349634 21.1875 19.1875 C20.95224609 20.05052734 20.71699219 20.91355469 20.47460938 21.80273438 C18.8682784 27.31316634 17.05515647 30.90566328 13 35 C9.74696956 36.62651522 6.60774398 36.11453156 3 36 C2 35 2 35 1.90234375 33.15234375 C1.93489583 31.1015625 1.96744792 29.05078125 2 27 C3.65 27 5.3 27 7 27 C6.41227878 21.37573109 4.92312357 16.52963947 2.9375 11.25 C0 3.38529748 0 3.38529748 0 0 Z " fill="#5A4AE3" transform="translate(235,698)"/>
<path d="M0 0 C3.3 0 6.6 0 10 0 C10.33 5.61 10.66 11.22 11 17 C12.32 16.67 13.64 16.34 15 16 C15.33 10.72 15.66 5.44 16 0 C18.97 0 21.94 0 25 0 C25 5.61 25 11.22 25 17 C25.66 17 26.32 17 27 17 C27.09765625 23.15234375 27.09765625 23.15234375 27 25 C26 26 26 26 23.0625 26.125 C20 26 20 26 18 25 C18 24.34 18 23.68 18 23 C17.154375 23.495 16.30875 23.99 15.4375 24.5 C11.51760133 26.21050124 9.2289006 26.61511282 5 26 C2.3046875 24.14453125 2.3046875 24.14453125 0 21 C-0.60811405 17.37511957 -0.47237412 13.84984705 -0.3125 10.1875 C-0.28994141 9.20845703 -0.26738281 8.22941406 -0.24414062 7.22070312 C-0.18541964 4.8131427 -0.09574426 2.40637246 0 0 Z " fill="#5A4AE3" transform="translate(448,698)"/>
<path d="M0 0 C2.50681326 1.3401203 4.55415069 2.79367394 6.36328125 4.99609375 C7.22601598 8.44703265 7.04416511 11.69457801 6.92578125 15.24609375 C5.60578125 15.57609375 4.28578125 15.90609375 2.92578125 16.24609375 C3.91578125 16.57609375 4.90578125 16.90609375 5.92578125 17.24609375 C4.99927863 20.67415344 4.26463492 22.01212336 1.30078125 24.05859375 C-4.05619731 25.94345658 -8.08942399 26.03252186 -13.38671875 23.93359375 C-17.05565784 21.6298413 -18.69498029 20.38380912 -20.07421875 16.24609375 C-20.49189059 9.7721802 -19.88191267 6.52173666 -15.57421875 1.49609375 C-11.49385519 -1.90420921 -4.79696655 -1.74353022 0 0 Z M-8.07421875 6.24609375 C-9.06421875 7.73109375 -9.06421875 7.73109375 -10.07421875 9.24609375 C-7.76421875 9.24609375 -5.45421875 9.24609375 -3.07421875 9.24609375 C-3.73421875 8.25609375 -4.39421875 7.26609375 -5.07421875 6.24609375 C-6.06421875 6.24609375 -7.05421875 6.24609375 -8.07421875 6.24609375 Z M-10.07421875 15.24609375 C-9.08421875 16.73109375 -9.08421875 16.73109375 -8.07421875 18.24609375 C-5.6015511 17.90164494 -5.6015511 17.90164494 -3.07421875 17.24609375 C-2.74421875 16.58609375 -2.41421875 15.92609375 -2.07421875 15.24609375 C-4.71421875 15.24609375 -7.35421875 15.24609375 -10.07421875 15.24609375 Z " fill="#5A4AE3" transform="translate(926.07421875,698.75390625)"/>
<path d="M0 0 C2.25766026 1.45602727 3.78301976 2.74963327 4.9921875 5.16796875 C5.06252519 7.0417648 5.0764897 8.91797977 5.0546875 10.79296875 C5.04566406 11.79585937 5.03664063 12.79875 5.02734375 13.83203125 C5.01574219 14.60289062 5.00414062 15.37375 4.9921875 16.16796875 C5.6521875 16.16796875 6.3121875 16.16796875 6.9921875 16.16796875 C7.08984375 22.3203125 7.08984375 22.3203125 6.9921875 24.16796875 C5.9921875 25.16796875 5.9921875 25.16796875 3.1796875 25.35546875 C-0.0078125 25.16796875 -0.0078125 25.16796875 -2.1328125 24.04296875 C-2.7515625 23.75421875 -3.3703125 23.46546875 -4.0078125 23.16796875 C-5.35867057 23.79836918 -6.69033926 24.47048292 -8.0078125 25.16796875 C-11.7349367 25.64377184 -13.51527106 25.44160288 -16.8203125 23.60546875 C-19.69880981 20.39800032 -20.08298911 18.45303535 -20.0078125 14.16796875 C-17.92155911 10.74055246 -16.8333814 9.44315838 -13.0078125 8.16796875 C-11.61341586 8.10131499 -10.21611375 8.08258676 -8.8203125 8.10546875 C-6.933125 8.13640625 -6.933125 8.13640625 -5.0078125 8.16796875 C-5.0078125 7.50796875 -5.0078125 6.84796875 -5.0078125 6.16796875 C-8.6378125 6.82796875 -12.2678125 7.48796875 -16.0078125 8.16796875 C-16.9978125 6.18796875 -17.9878125 4.20796875 -19.0078125 2.16796875 C-13.42902818 -1.45070216 -6.28156812 -2.60306228 0 0 Z M-10.0078125 14.16796875 C-10.3378125 15.15796875 -10.6678125 16.14796875 -11.0078125 17.16796875 C-9.16056198 17.85956276 -9.16056198 17.85956276 -7.0078125 18.16796875 C-6.0178125 17.50796875 -5.0278125 16.84796875 -4.0078125 16.16796875 C-4.0078125 15.50796875 -4.0078125 14.84796875 -4.0078125 14.16796875 C-5.9878125 14.16796875 -7.9678125 14.16796875 -10.0078125 14.16796875 Z " fill="#5A4AE3" transform="translate(345.0078125,698.83203125)"/>
<path d="M0 0 C3.21014818 2.24710373 4.21201355 4.17694195 4.9140625 8.01171875 C5.40139845 13.61608212 5.5907416 19.12402083 5.5 24.75 C-0.0255814 25.00116279 -0.0255814 25.00116279 -2.625 23.625 C-3.24375 23.33625 -3.8625 23.0475 -4.5 22.75 C-5.85085807 23.38040043 -7.18252676 24.05251417 -8.5 24.75 C-13.14737625 25.24440173 -15.74757 24.53751943 -19.5 21.75 C-20.92662219 18.89675563 -20.81033868 16.91545451 -20.5 13.75 C-19.125 11 -19.125 11 -16.5 8.75 C-13.20301214 7.75263533 -9.91307279 7.18640435 -6.5 6.75 C-10.33225427 6.66087781 -13.76562152 6.87132271 -17.5 7.75 C-18.16 5.77 -18.82 3.79 -19.5 1.75 C-13.20881687 -2.22337882 -6.90718641 -2.46685229 0 0 Z M-10.5 13.75 C-10.5 15.07 -10.5 16.39 -10.5 17.75 C-8.85 17.42 -7.2 17.09 -5.5 16.75 C-5.5 15.76 -5.5 14.77 -5.5 13.75 C-7.15 13.75 -8.8 13.75 -10.5 13.75 Z " fill="#5A4AE3" transform="translate(613.5,699.25)"/>
<path d="M0 0 C3.02286884 1.38548155 4.66871425 2.66871425 7 5 C8.75472339 11.94307217 9.23767383 18.86978521 9 26 C2.47692308 26.36923077 2.47692308 26.36923077 0.0625 24.5 C-0.4634375 23.7575 -0.4634375 23.7575 -1 23 C-1.7115625 23.7734375 -1.7115625 23.7734375 -2.4375 24.5625 C-6.32524734 26.74343144 -9.7836897 26.15788825 -14 25 C-16.94644585 22.67855781 -16.97099708 21.23202338 -17.4375 17.5 C-17 14 -17 14 -15.625 11.6875 C-11.7095354 9.17041562 -7.55696646 8.66093407 -3 8 C-8.57830016 7.87530901 -8.57830016 7.87530901 -14 9 C-14.66 7.02 -15.32 5.04 -16 3 C-10.73715897 -0.3238996 -6.05529305 -0.76828426 0 0 Z M-7 15 C-7 16.32 -7 17.64 -7 19 C-5.01508358 18.73323796 -5.01508358 18.73323796 -3 18 C-2.67 17.01 -2.34 16.02 -2 15 C-3.65 15 -5.3 15 -7 15 Z " fill="#5A4AE3" transform="translate(766,698)"/>
<path d="M0 0 C4.845 3.8475 4.845 3.8475 6.125 7.6875 C6.16454234 10.02049825 6.16901732 12.35458189 6.125 14.6875 C4.475 15.0175 2.825 15.3475 1.125 15.6875 C2.445 16.0175 3.765 16.3475 5.125 16.6875 C3.72915208 20.06079915 2.20134389 21.72982662 -0.875 23.6875 C-5.58022555 25.25590852 -9.40148816 25.23645539 -14.0625 23.5 C-17.30644395 21.40945834 -18.99634184 20.08353591 -20.875 16.6875 C-21.54801829 12.09736401 -21.41352282 8.09364292 -19.75 3.75 C-14.53858155 -1.98256029 -6.94188129 -3.16911972 0 0 Z M-9.875 5.6875 C-10.205 6.6775 -10.535 7.6675 -10.875 8.6875 C-8.565 8.6875 -6.255 8.6875 -3.875 8.6875 C-4.535 7.6975 -5.195 6.7075 -5.875 5.6875 C-7.195 5.6875 -8.515 5.6875 -9.875 5.6875 Z M-10.875 14.6875 C-9.885 16.1725 -9.885 16.1725 -8.875 17.6875 C-6.40233235 17.34305119 -6.40233235 17.34305119 -3.875 16.6875 C-3.545 16.0275 -3.215 15.3675 -2.875 14.6875 C-5.515 14.6875 -8.155 14.6875 -10.875 14.6875 Z " fill="#5A4AE3" transform="translate(898.875,699.3125)"/>
<path d="M0 0 C4.845 3.8475 4.845 3.8475 6.125 7.6875 C6.16454234 10.02049825 6.16901732 12.35458189 6.125 14.6875 C4.475 15.0175 2.825 15.3475 1.125 15.6875 C2.445 16.0175 3.765 16.3475 5.125 16.6875 C3.72915208 20.06079915 2.20134389 21.72982662 -0.875 23.6875 C-5.58022555 25.25590852 -9.40148816 25.23645539 -14.0625 23.5 C-17.30644395 21.40945834 -18.99634184 20.08353591 -20.875 16.6875 C-21.54801829 12.09736401 -21.41352282 8.09364292 -19.75 3.75 C-14.53858155 -1.98256029 -6.94188129 -3.16911972 0 0 Z M-9.875 5.6875 C-10.205 6.6775 -10.535 7.6675 -10.875 8.6875 C-8.565 8.6875 -6.255 8.6875 -3.875 8.6875 C-4.535 7.6975 -5.195 6.7075 -5.875 5.6875 C-7.195 5.6875 -8.515 5.6875 -9.875 5.6875 Z M-10.875 14.6875 C-9.885 16.1725 -9.885 16.1725 -8.875 17.6875 C-6.40233235 17.34305119 -6.40233235 17.34305119 -3.875 16.6875 C-3.545 16.0275 -3.215 15.3675 -2.875 14.6875 C-5.515 14.6875 -8.155 14.6875 -10.875 14.6875 Z " fill="#5A4AE3" transform="translate(281.875,699.3125)"/>
<path d="M0 0 C3.76266417 1.77871397 5.51796464 3.33137031 7.9375 6.6875 C9.34731537 11.08280674 9.20406057 14.56053857 8 19 C6.18872454 22.04035523 4.78738074 23.54069457 1.75 25.3125 C-3.41818792 26.60454698 -7.95445267 26.81178618 -12.8125 24.5625 C-16.39112414 22.23967745 -17.61737409 19.42820764 -18.69140625 15.37890625 C-19.22142351 11.293077 -18.56373638 8.84418526 -17 5 C-11.69643562 -0.17097527 -7.19168602 -0.78434671 0 0 Z M-7.75 9.1875 C-9.25148889 10.98483756 -9.25148889 10.98483756 -8.9375 13.5625 C-8.22094782 16.14661024 -8.22094782 16.14661024 -5.9375 17.3125 C-5.298125 17.539375 -4.65875 17.76625 -4 18 C-1.71226855 16.18887927 -1.04790178 15.39279457 -0.6875 12.4375 C-0.77033253 9.82203581 -0.77033253 9.82203581 -3 8 C-5.9387397 7.71924929 -5.9387397 7.71924929 -7.75 9.1875 Z " fill="#5A4AE3" transform="translate(437,698)"/>
<path d="M0 0 C2.97 0 5.94 0 9 0 C9 0.66 9 1.32 9 2 C9.495 1.67 9.99 1.34 10.5 1 C13.93199088 -0.37279635 17.36868233 -0.83690524 21 0 C23.234375 1.3515625 23.234375 1.3515625 25 4 C25.49209344 7.59518579 25.3753226 11.13010484 25.25 14.75 C25.23195313 15.73355469 25.21390625 16.71710937 25.1953125 17.73046875 C25.14825241 20.15406341 25.07651086 22.57715625 25 25 C22.03 25 19.06 25 16 25 C15.67 20.05 15.34 15.1 15 10 C13.68 9.67 12.36 9.34 11 9 C10.67 14.28 10.34 19.56 10 25 C6.7 25 3.4 25 0 25 C0 16.75 0 8.5 0 0 Z " fill="#5A4AE3" transform="translate(354,698)"/>
<path d="M0 0 C2.64 0 5.28 0 8 0 C8.33 0.66 8.66 1.32 9 2 C9.495 1.67 9.99 1.34 10.5 1 C13.91714999 -0.36686 17.40802798 -1.00322656 21 0 C23.58576966 2.17891779 24.8480415 3.89535137 25.31445312 7.28588867 C25.39385564 9.97259483 25.34870658 12.62654214 25.25 15.3125 C25.23195313 16.24384766 25.21390625 17.17519531 25.1953125 18.13476562 C25.14836161 20.42362149 25.07662323 22.71194527 25 25 C21.7 25 18.4 25 15 25 C14.67 19.72 14.34 14.44 14 9 C12.02 9.99 12.02 9.99 10 11 C9.29211565 14.33975372 9.29211565 14.33975372 9.25 18.125 C9.19328125 19.40632812 9.1365625 20.68765625 9.078125 22.0078125 C9.05234375 22.99523437 9.0265625 23.98265625 9 25 C6.03 25 3.06 25 0 25 C0 16.75 0 8.5 0 0 Z " fill="#5A4AE3" transform="translate(968,698)"/>
<path d="M0 0 C2.64 0 5.28 0 8 0 C8.33 0.66 8.66 1.32 9 2 C9.495 1.67 9.99 1.34 10.5 1 C13.91714999 -0.36686 17.40802798 -1.00322656 21 0 C23.58576966 2.17891779 24.8480415 3.89535137 25.31445312 7.28588867 C25.39385564 9.97259483 25.34870658 12.62654214 25.25 15.3125 C25.23195313 16.24384766 25.21390625 17.17519531 25.1953125 18.13476562 C25.14836161 20.42362149 25.07662323 22.71194527 25 25 C21.7 25 18.4 25 15 25 C14.67 19.72 14.34 14.44 14 9 C12.02 9.99 12.02 9.99 10 11 C9.29211565 14.33975372 9.29211565 14.33975372 9.25 18.125 C9.19328125 19.40632812 9.1365625 20.68765625 9.078125 22.0078125 C9.05234375 22.99523437 9.0265625 23.98265625 9 25 C6.03 25 3.06 25 0 25 C0 16.75 0 8.5 0 0 Z " fill="#5A4AE3" transform="translate(778,698)"/>
<path d="M0 0 C2.64 0 5.28 0 8 0 C8.33 0.66 8.66 1.32 9 2 C9.495 1.67 9.99 1.34 10.5 1 C13.91714999 -0.36686 17.40802798 -1.00322656 21 0 C23.58576966 2.17891779 24.8480415 3.89535137 25.31445312 7.28588867 C25.39385564 9.97259483 25.34870658 12.62654214 25.25 15.3125 C25.23195313 16.24384766 25.21390625 17.17519531 25.1953125 18.13476562 C25.14836161 20.42362149 25.07662323 22.71194527 25 25 C21.7 25 18.4 25 15 25 C14.67 19.72 14.34 14.44 14 9 C12.02 9.99 12.02 9.99 10 11 C9.29211565 14.33975372 9.29211565 14.33975372 9.25 18.125 C9.19328125 19.40632812 9.1365625 20.68765625 9.078125 22.0078125 C9.05234375 22.99523437 9.0265625 23.98265625 9 25 C6.03 25 3.06 25 0 25 C0 16.75 0 8.5 0 0 Z " fill="#5A4AE3" transform="translate(478,698)"/>
<path d="M0 0 C3.63 0 7.26 0 11 0 C12.00911458 2.57161458 13.01822917 5.14322917 14.02734375 7.71484375 C14.7996218 9.92418533 14.7996218 9.92418533 16 11 C17.65 7.37 19.3 3.74 21 0 C24.63 0 28.26 0 32 0 C30.5210936 3.12512341 29.04188682 6.25010402 27.5625 9.375 C26.93118164 10.70917969 26.93118164 10.70917969 26.28710938 12.0703125 C25.88427734 12.92109375 25.48144531 13.771875 25.06640625 14.6484375 C24.69459229 15.43395996 24.32277832 16.21948242 23.93969727 17.02880859 C23.30575142 18.358629 22.65883376 19.68233248 22 21 C21.77141886 23.0374763 21.58975722 25.08040303 21.4375 27.125 C21.35371094 28.22070312 21.26992188 29.31640625 21.18359375 30.4453125 C21.09271484 31.70988281 21.09271484 31.70988281 21 33 C17.7 33 14.4 33 11 33 C10.93941406 31.40285156 10.87882812 29.80570313 10.81640625 28.16015625 C10.23452367 21.75739539 8.00119603 17.01283678 4.9375 11.4375 C4.00610407 9.68779714 3.07756305 7.93657057 2.15234375 6.18359375 C1.5334729 5.04748657 1.5334729 5.04748657 0.90209961 3.88842773 C0 2 0 2 0 0 Z " fill="#5A4AE3" transform="translate(391,690)"/>
<path d="M0 0 C3.125 1.5 3.125 1.5 5 3 C4.25 5.4375 4.25 5.4375 3 8 C1.19863649 8.70962805 -0.08176904 9 -2 9 C-1.05125 9.45375 -0.1025 9.9075 0.875 10.375 C4 12 4 12 6 14 C6.4423824 17.98144156 6.66305693 20.13116678 4.1875 23.375 C0.23192432 26.31342765 -3.19705523 26.32019632 -8 26 C-10.6125998 25.2513301 -12.5723078 24.31095379 -15 23 C-15.33 22.01 -15.66 21.02 -16 20 C-14.5625 17.8125 -14.5625 17.8125 -13 16 C-8.545 16.99 -8.545 16.99 -4 18 C-5.04800781 17.61908203 -5.04800781 17.61908203 -6.1171875 17.23046875 C-7.02726562 16.88628906 -7.93734375 16.54210937 -8.875 16.1875 C-9.77992188 15.85105469 -10.68484375 15.51460937 -11.6171875 15.16796875 C-14 14 -14 14 -16 11 C-15.92683968 6.97618248 -15.58715527 4.73867921 -13.0625 1.5625 C-8.69199659 -0.66734868 -4.81705587 -0.68702272 0 0 Z " fill="#5A4AE3" transform="translate(305,698)"/>
<path d="M0 0 C2.76310241 1.05481563 4.56488913 2.22439833 7 4 C7.33 4.99 7.66 5.98 8 7 C2.71825344 9.69476865 -0.02194448 10.1956111 -6 9 C-7.35618499 10.12534105 -7.35618499 10.12534105 -7.0625 13.0625 C-7.041875 14.031875 -7.02125 15.00125 -7 16 C-4.78362457 16.71240639 -3.44689104 17.13869032 -1.1875 16.4375 C2.15670931 15.76865814 4.81774782 16.95964833 8 18 C6.70989008 20.87793751 5.42638194 22.96183917 3 25 C-2.01027625 26.67009208 -6.33043317 26.57792698 -11.25 24.875 C-14.64366345 22.56113855 -16.18764821 20.69440942 -18 17 C-18.67187475 13.14993118 -18.36864601 9.90113469 -16.875 6.25 C-12.0942435 0.5130922 -7.24051964 -1.26740465 0 0 Z " fill="#5A4AE3" transform="translate(727,698)"/>
<path d="M0 0 C3.3 0 6.6 0 10 0 C10 2.31 10 4.62 10 7 C11.65 7 13.3 7 15 7 C15 9.64 15 12.28 15 15 C13.35 15 11.7 15 10 15 C10 17.97 10 20.94 10 24 C11.65 23.67 13.3 23.34 15 23 C15.66 25.64 16.32 28.28 17 31 C12.87484127 33.00007696 9.5659292 33.41508447 5 33 C2.51263757 31.69086188 1.31754165 30.92979517 0.40234375 28.25 C-0.08135675 25.54503408 -0.09519835 22.99666141 -0.0625 20.25 C-0.05347656 19.26515625 -0.04445313 18.2803125 -0.03515625 17.265625 C-0.02355469 16.51796875 -0.01195312 15.7703125 0 15 C-0.99 15 -1.98 15 -3 15 C-3 12.36 -3 9.72 -3 7 C-2.01 7 -1.02 7 0 7 C0 4.69 0 2.38 0 0 Z " fill="#5A4AE3" transform="translate(623,691)"/>
<path d="M0 0 C3.3 0 6.6 0 10 0 C10 2.31 10 4.62 10 7 C11.65 7 13.3 7 15 7 C15 9.64 15 12.28 15 15 C13.35 15 11.7 15 10 15 C10 17.97 10 20.94 10 24 C11.65 23.67 13.3 23.34 15 23 C15.66 25.64 16.32 28.28 17 31 C12.87484127 33.00007696 9.5659292 33.41508447 5 33 C2.51263757 31.69086188 1.31754165 30.92979517 0.40234375 28.25 C-0.08135675 25.54503408 -0.09519835 22.99666141 -0.0625 20.25 C-0.05347656 19.26515625 -0.04445313 18.2803125 -0.03515625 17.265625 C-0.02355469 16.51796875 -0.01195312 15.7703125 0 15 C-0.99 15 -1.98 15 -3 15 C-3 12.36 -3 9.72 -3 7 C-2.01 7 -1.02 7 0 7 C0 4.69 0 2.38 0 0 Z " fill="#5A4AE3" transform="translate(576,691)"/>
<path d="M0 0 C3.0625 1.5 3.0625 1.5 5 3 C4.1875 5.4375 4.1875 5.4375 3 8 C0 9 0 9 -2 9 C-1.05125 9.45375 -0.1025 9.9075 0.875 10.375 C4 12 4 12 6 14 C6.65211063 19.05385735 6.65211063 19.05385735 6 22 C2.74149882 25.25850118 0.63071827 25.92992019 -3.9375 26.4375 C-8.14827326 26.2188637 -11.28953738 24.9688169 -15 23 C-15.33 22.34 -15.66 21.68 -16 21 C-14.5625 18.375 -14.5625 18.375 -13 16 C-9.7 16.99 -6.4 17.98 -3 19 C-3 18.34 -3 17.68 -3 17 C-3.61488281 16.89042969 -4.22976563 16.78085937 -4.86328125 16.66796875 C-6.07564453 16.43013672 -6.07564453 16.43013672 -7.3125 16.1875 C-8.11300781 16.03667969 -8.91351562 15.88585937 -9.73828125 15.73046875 C-12.29720725 14.90401078 -13.39066183 14.13899377 -15 12 C-15.4375 8.5625 -15.4375 8.5625 -15 5 C-10.76091153 -0.36951206 -6.49637061 -0.67203834 0 0 Z " fill="#5A4AE3" transform="translate(821,698)"/>
<path d="M0 0 C3.0625 1.5 3.0625 1.5 5 3 C4.1875 5.4375 4.1875 5.4375 3 8 C0 9 0 9 -2 9 C-1.05125 9.45375 -0.1025 9.9075 0.875 10.375 C4 12 4 12 6 14 C6.65211063 19.05385735 6.65211063 19.05385735 6 22 C2.74149882 25.25850118 0.63071827 25.92992019 -3.9375 26.4375 C-8.14827326 26.2188637 -11.28953738 24.9688169 -15 23 C-15.33 22.34 -15.66 21.68 -16 21 C-14.5625 18.375 -14.5625 18.375 -13 16 C-9.7 16.99 -6.4 17.98 -3 19 C-3 18.34 -3 17.68 -3 17 C-3.61488281 16.89042969 -4.22976563 16.78085937 -4.86328125 16.66796875 C-6.07564453 16.43013672 -6.07564453 16.43013672 -7.3125 16.1875 C-8.11300781 16.03667969 -8.91351562 15.88585937 -9.73828125 15.73046875 C-12.29720725 14.90401078 -13.39066183 14.13899377 -15 12 C-15.4375 8.5625 -15.4375 8.5625 -15 5 C-10.76091153 -0.36951206 -6.49637061 -0.67203834 0 0 Z " fill="#5A4AE3" transform="translate(669,698)"/>
<path d="M0 0 C2.97 0 5.94 0 9 0 C9 2.31 9 4.62 9 7 C10.65 7 12.3 7 14 7 C14 9.64 14 12.28 14 15 C12.35 15 10.7 15 9 15 C9.33 17.97 9.66 20.94 10 24 C11.65 23.67 13.3 23.34 15 23 C15.33 25.64 15.66 28.28 16 31 C11.87758672 32.99874583 8.56422451 33.4979154 4 33 C1.80078125 31.4296875 1.80078125 31.4296875 0 29 C-0.390625 25.546875 -0.390625 25.546875 -0.25 21.75 C-0.21390625 20.48671875 -0.1778125 19.2234375 -0.140625 17.921875 C-0.09421875 16.95765625 -0.0478125 15.9934375 0 15 C-0.99 15 -1.98 15 -3 15 C-3 12.36 -3 9.72 -3 7 C-2.01 7 -1.02 7 0 7 C0 4.69 0 2.38 0 0 Z " fill="#5A4AE3" transform="translate(679,691)"/>
<path d="M0 0 C2.97 0 5.94 0 9 0 C9 2.31 9 4.62 9 7 C10.65 7 12.3 7 14 7 C14 9.64 14 12.28 14 15 C12.35 15 10.7 15 9 15 C9.33 17.64 9.66 20.28 10 23 C11.65 23.33 13.3 23.66 15 24 C15.33 26.31 15.66 28.62 16 31 C11.87484127 33.00007696 8.5659292 33.41508447 4 33 C1.80078125 31.9609375 1.80078125 31.9609375 0 30 C-0.29642569 27.28770497 -0.38061189 25.00260268 -0.25 22.3125 C-0.23195313 21.61060547 -0.21390625 20.90871094 -0.1953125 20.18554688 C-0.14826213 18.45644564 -0.07651873 16.72804795 0 15 C-0.99 15 -1.98 15 -3 15 C-3 12.36 -3 9.72 -3 7 C-2.01 7 -1.02 7 0 7 C0 4.69 0 2.38 0 0 Z " fill="#5A4AE3" transform="translate(937,691)"/>
<path d="M0 0 C3.3 0 6.6 0 10 0 C10 8.25 10 16.5 10 25 C6.7 25 3.4 25 0 25 C0 16.75 0 8.5 0 0 Z " fill="#5A4AE3" transform="translate(697,698)"/>
<path d="M0 0 C3.3 0 6.6 0 10 0 C10 8.25 10 16.5 10 25 C6.7 25 3.4 25 0 25 C0 16.75 0 8.5 0 0 Z " fill="#5A4AE3" transform="translate(641,698)"/>
<path d="M0 0 C2.97 0 5.94 0 9 0 C9 8.25 9 16.5 9 25 C6.03 25 3.06 25 0 25 C0 16.75 0 8.5 0 0 Z " fill="#5A4AE3" transform="translate(955,698)"/>
<path d="M0 0 C2.97 0 5.94 0 9 0 C9 8.25 9 16.5 9 25 C6.03 25 3.06 25 0 25 C0 16.75 0 8.5 0 0 Z " fill="#5A4AE3" transform="translate(737,698)"/>
<path d="M0 0 C2.97 0 5.94 0 9 0 C9 8.25 9 16.5 9 25 C6.03 25 3.06 25 0 25 C0 16.75 0 8.5 0 0 Z " fill="#5A4AE3" transform="translate(314,698)"/>
<path d="M0 0 C3.3 0 6.6 0 10 0 C10 2.64 10 5.28 10 8 C6.7 8 3.4 8 0 8 C0 5.36 0 2.72 0 0 Z " fill="#5A4AE3" transform="translate(697,689)"/>
<path d="M0 0 C3.3 0 6.6 0 10 0 C10 2.64 10 5.28 10 8 C6.7 8 3.4 8 0 8 C0 5.36 0 2.72 0 0 Z " fill="#5A4AE3" transform="translate(641,689)"/>
<path d="M0 0 C2.97 0 5.94 0 9 0 C9 2.64 9 5.28 9 8 C6.03 8 3.06 8 0 8 C0 5.36 0 2.72 0 0 Z " fill="#5A49E3" transform="translate(955,689)"/>
<path d="M0 0 C2.97 0 5.94 0 9 0 C9 2.64 9 5.28 9 8 C6.03 8 3.06 8 0 8 C0 5.36 0 2.72 0 0 Z " fill="#5A49E3" transform="translate(737,689)"/>
<path d="M0 0 C2.97 0 5.94 0 9 0 C9 2.64 9 5.28 9 8 C6.03 8 3.06 8 0 8 C0 5.36 0 2.72 0 0 Z " fill="#5A49E3" transform="translate(314,689)"/>
</svg>
